<svg xmlns="http://www.w3.org/2000/svg" viewBox="0 0 400 240" width="100%" height="100%">
<title>Javascript Callback Function (Rückruf-Funktion) für asynchrone Funktionen und zur Erweiterung von Libraries</title>
<desc>Grafik mit einem Kreiszeiger und Andeutung einer Uhr.</desc>
	<path fill="hsl(50,80%,50%)" d="m209.8 4.336c-64.2 0-116.6 52.16-117 116.4h26.68c.4-49.79 40.5-89.67 90.3-89.67 50.1 0 90.3 40.22 90.3 90.27 0 49.9-39.9 90.2-89.9 90.4a13.29 13.29 0 0 0 -11.8 13.3 13.29 13.29 0 0 0 11.8 13.1v.3c64.6-.3 116.8-52.7 116.8-117.1 0-64.45-52.7-117-117.2-117z"/>
	<path stroke-linejoin="round" d="m70.32 56.61l28.75 66.59 58.33-43.63" stroke="hsl(50,80%,50%)" stroke-linecap="round" stroke-width="19.51" fill="none"/>
	<path stroke-linejoin="round" d="m202 83.37v56.53h52.6" stroke="hsl(50,80%,50%)" stroke-linecap="round" stroke-width="19.51" fill="none"/>
	<text font-weight="bold"  font-size="40px" y="200" x="40" fill="hsl(50,80%,40%)">callback</text>
	<text font-weight="bold"  font-size="40px" y="232" x="40" fill="hsl(50,80%,40%)">function</text>
</svg>
